<svg width="86" height="25" viewBox="0 0 86 25" fill="none" xmlns="http://www.w3.org/2000/svg">
<path d="M40.932 23.576C40.924 23.624 40.876 23.636 40.788 23.612C40.708 23.596 40.636 23.54 40.572 23.444C40.508 23.292 40.476 23.152 40.476 23.024C40.476 22.896 40.48 22.704 40.488 22.448C40.536 22.168 40.6 21.804 40.68 21.356C40.768 20.9 40.868 20.392 40.98 19.832C41.1 19.264 41.228 18.672 41.364 18.056C41.46 17.736 41.536 17.444 41.592 17.18C41.656 16.908 41.704 16.688 41.736 16.52C41.768 16.352 41.784 16.268 41.784 16.268C41.784 16.244 41.76 16.256 41.712 16.304C41.672 16.344 41.632 16.392 41.592 16.448C41.552 16.504 41.536 16.548 41.544 16.58C41.544 16.58 41.516 16.62 41.46 16.7C41.404 16.78 41.332 16.888 41.244 17.024C41.164 17.104 41.068 17.264 40.956 17.504C40.844 17.744 40.72 17.968 40.584 18.176C40.456 18.416 40.32 18.676 40.176 18.956C40.032 19.228 39.904 19.456 39.792 19.64C39.72 19.744 39.648 19.864 39.576 20C39.504 20.136 39.46 20.224 39.444 20.264C39.412 20.352 39.356 20.46 39.276 20.588C39.196 20.708 39.108 20.828 39.012 20.948C38.964 21.02 38.916 21.096 38.868 21.176C38.82 21.248 38.78 21.312 38.748 21.368C38.724 21.416 38.712 21.44 38.712 21.44C38.712 21.464 38.672 21.536 38.592 21.656C38.52 21.776 38.428 21.908 38.316 22.052C38.212 22.196 38.112 22.32 38.016 22.424C37.736 22.72 37.512 22.896 37.344 22.952C37.176 23 36.988 22.928 36.78 22.736C36.676 22.608 36.6 22.464 36.552 22.304C36.504 22.136 36.484 21.932 36.492 21.692C36.5 21.444 36.528 21.136 36.576 20.768C36.632 20.488 36.684 20.208 36.732 19.928C36.78 19.64 36.824 19.372 36.864 19.124C36.912 18.868 36.952 18.652 36.984 18.476C37.024 18.3 37.056 18.184 37.08 18.128C37.096 17.968 37.092 17.88 37.068 17.864C37.044 17.848 36.996 17.896 36.924 18.008C36.892 18.064 36.808 18.204 36.672 18.428C36.536 18.644 36.376 18.912 36.192 19.232C36.016 19.552 35.84 19.9 35.664 20.276C35.336 20.884 35.064 21.388 34.848 21.788C34.64 22.18 34.472 22.492 34.344 22.724C34.224 22.956 34.136 23.128 34.08 23.24C34.024 23.352 33.984 23.428 33.96 23.468C33.936 23.508 33.916 23.536 33.9 23.552C33.828 23.552 33.752 23.52 33.672 23.456C33.6 23.4 33.524 23.332 33.444 23.252C33.42 23.196 33.408 23.14 33.408 23.084C33.416 23.028 33.444 22.948 33.492 22.844C33.54 22.732 33.612 22.564 33.708 22.34C33.812 22.132 33.908 21.952 33.996 21.8C34.084 21.64 34.152 21.544 34.2 21.512C34.24 21.448 34.276 21.384 34.308 21.32C34.34 21.256 34.36 21.18 34.368 21.092C34.408 21.044 34.468 20.948 34.548 20.804C34.636 20.652 34.724 20.488 34.812 20.312C34.876 20.208 34.956 20.072 35.052 19.904C35.156 19.736 35.264 19.552 35.376 19.352C35.488 19.144 35.588 18.948 35.676 18.764C36.044 18.132 36.356 17.6 36.612 17.168C36.868 16.728 37.06 16.448 37.188 16.328C37.228 16.288 37.268 16.232 37.308 16.16C37.356 16.088 37.38 16.024 37.38 15.968C37.38 15.8 37.412 15.648 37.476 15.512C37.548 15.368 37.62 15.304 37.692 15.32C37.772 15.32 37.844 15.328 37.908 15.344C37.972 15.36 38.04 15.412 38.112 15.5C38.176 15.596 38.232 15.692 38.28 15.788C38.328 15.884 38.324 16.076 38.268 16.364C38.268 16.476 38.256 16.604 38.232 16.748C38.208 16.884 38.184 17.012 38.16 17.132C38.144 17.244 38.132 17.332 38.124 17.396C38.02 17.708 37.924 18.06 37.836 18.452C37.748 18.836 37.668 19.228 37.596 19.628C37.524 20.02 37.464 20.388 37.416 20.732C37.368 21.068 37.336 21.348 37.32 21.572C37.312 21.788 37.32 21.912 37.344 21.944C37.4 21.976 37.448 21.98 37.488 21.956C37.528 21.932 37.596 21.828 37.692 21.644C37.748 21.548 37.824 21.432 37.92 21.296C38.024 21.152 38.124 21.02 38.22 20.9C38.284 20.788 38.384 20.62 38.52 20.396C38.656 20.172 38.828 19.884 39.036 19.532C39.252 19.18 39.508 18.752 39.804 18.248C40.108 17.736 40.452 17.144 40.836 16.472C41.02 16.192 41.192 15.92 41.352 15.656C41.52 15.384 41.656 15.208 41.76 15.128C41.872 15.024 41.988 15 42.108 15.056C42.228 15.104 42.332 15.208 42.42 15.368C42.516 15.528 42.568 15.728 42.576 15.968C42.584 16.08 42.568 16.26 42.528 16.508C42.496 16.756 42.444 17.04 42.372 17.36C42.3 17.672 42.208 17.996 42.096 18.332C42.072 18.468 42.032 18.64 41.976 18.848C41.928 19.048 41.872 19.256 41.808 19.472C41.744 19.688 41.68 19.892 41.616 20.084C41.576 20.348 41.528 20.608 41.472 20.864C41.424 21.12 41.408 21.292 41.424 21.38C41.352 21.508 41.304 21.692 41.28 21.932C41.256 22.172 41.244 22.42 41.244 22.676C41.212 22.988 41.188 23.208 41.172 23.336C41.156 23.464 41.128 23.524 41.088 23.516C40.984 23.484 40.932 23.504 40.932 23.576ZM44.9487 22.58C44.7807 22.724 44.5847 22.808 44.3607 22.832C44.1447 22.856 43.9327 22.824 43.7247 22.736C43.5167 22.64 43.3447 22.496 43.2087 22.304C43.0727 22.128 42.9847 21.928 42.9447 21.704C42.9047 21.472 42.9007 21.172 42.9327 20.804C42.9567 20.492 43.0567 20.18 43.2327 19.868C43.4087 19.548 43.6207 19.264 43.8687 19.016C44.1247 18.768 44.3767 18.596 44.6247 18.5C44.7447 18.42 44.8447 18.384 44.9247 18.392C45.0127 18.392 45.1447 18.4 45.3207 18.416C45.5047 18.44 45.6407 18.476 45.7287 18.524C45.8247 18.572 45.9007 18.636 45.9567 18.716C46.0767 18.836 46.1567 18.956 46.1967 19.076C46.2367 19.188 46.2567 19.3 46.2567 19.412C46.2247 19.588 46.1047 19.804 45.8967 20.06C45.6967 20.308 45.4327 20.512 45.1047 20.672C44.9287 20.728 44.7367 20.752 44.5287 20.744C44.3207 20.736 44.1487 20.684 44.0127 20.588C43.8607 20.524 43.7607 20.536 43.7127 20.624C43.6647 20.704 43.6207 20.904 43.5807 21.224C43.5487 21.528 43.5727 21.752 43.6527 21.896C43.7327 22.032 43.8407 22.112 43.9767 22.136C44.1367 22.168 44.2607 22.192 44.3487 22.208C44.4447 22.216 44.5607 22.18 44.6967 22.1C44.8247 22.02 44.9047 21.976 44.9367 21.968C44.9687 21.952 44.9927 21.936 45.0087 21.92C45.0327 21.896 45.0847 21.844 45.1647 21.764C45.2207 21.708 45.2647 21.668 45.2967 21.644C45.3287 21.612 45.3647 21.596 45.4047 21.596C45.4447 21.596 45.4807 21.616 45.5127 21.656C45.5447 21.688 45.5767 21.712 45.6087 21.728C45.6887 21.728 45.7047 21.776 45.6567 21.872C45.6167 21.968 45.5327 22.084 45.4047 22.22C45.2767 22.348 45.1247 22.468 44.9487 22.58ZM44.9367 20.036C45.0247 19.996 45.1167 19.94 45.2127 19.868C45.3087 19.788 45.3887 19.704 45.4527 19.616C45.5247 19.52 45.5607 19.44 45.5607 19.376C45.5607 19.264 45.5087 19.172 45.4047 19.1C45.3007 19.02 45.1447 19.008 44.9367 19.064C44.8487 19.088 44.7487 19.148 44.6367 19.244C44.5247 19.332 44.4167 19.432 44.3127 19.544C44.2167 19.656 44.1367 19.756 44.0727 19.844C44.0167 19.932 43.9967 19.984 44.0127 20C44.0367 20.04 44.1047 20.072 44.2167 20.096C44.3287 20.112 44.4527 20.116 44.5887 20.108C44.7327 20.1 44.8487 20.076 44.9367 20.036ZM50.9871 22.448C50.8271 22.448 50.6951 22.416 50.5911 22.352C50.4871 22.28 50.3991 22.164 50.3271 22.004C50.2951 21.892 50.2671 21.768 50.2431 21.632C50.2271 21.488 50.2191 21.356 50.2191 21.236C50.2191 21.108 50.2311 21.024 50.2551 20.984C50.2871 20.952 50.2991 20.896 50.2911 20.816C50.2911 20.728 50.2911 20.636 50.2911 20.54C50.2831 20.38 50.2431 20.292 50.1711 20.276C50.1071 20.252 50.0111 20.276 49.8831 20.348C49.7391 20.436 49.5511 20.556 49.3191 20.708C49.0871 20.852 48.8431 21.012 48.5871 21.188C48.3391 21.364 48.1031 21.548 47.8791 21.74C47.7031 21.932 47.5951 22.08 47.5551 22.184C47.5231 22.28 47.4751 22.328 47.4111 22.328C47.3471 22.36 47.2911 22.364 47.2431 22.34C47.2031 22.308 47.1431 22.26 47.0631 22.196C47.0071 22.132 46.9511 22.072 46.8951 22.016C46.8391 21.952 46.8031 21.904 46.7871 21.872C46.7871 21.832 46.7991 21.748 46.8231 21.62C46.8471 21.492 46.8751 21.364 46.9071 21.236C46.9471 21.108 46.9751 21.024 46.9911 20.984C47.0311 20.984 47.0631 20.944 47.0871 20.864C47.1191 20.784 47.1671 20.696 47.2311 20.6C47.2471 20.504 47.2871 20.376 47.3511 20.216C47.4231 20.048 47.4871 19.9 47.5431 19.772C47.6551 19.58 47.7311 19.42 47.7711 19.292C47.8191 19.164 47.8511 19.004 47.8671 18.812C47.8591 18.78 47.8671 18.752 47.8911 18.728C47.9151 18.696 47.9431 18.68 47.9751 18.68C48.0391 18.616 48.1151 18.6 48.2031 18.632C48.2911 18.656 48.3711 18.716 48.4431 18.812C48.5871 19.004 48.6431 19.204 48.6111 19.412C48.5871 19.612 48.4591 19.9 48.2271 20.276C48.1711 20.404 48.1271 20.504 48.0951 20.576C48.0711 20.64 48.0591 20.692 48.0591 20.732C48.0591 20.732 48.0991 20.704 48.1791 20.648C48.2671 20.592 48.3631 20.528 48.4671 20.456C48.5791 20.376 48.6671 20.316 48.7311 20.276C48.7711 20.236 48.8631 20.164 49.0071 20.06C49.1511 19.956 49.3031 19.856 49.4631 19.76C49.6311 19.656 49.7551 19.596 49.8351 19.58C49.8991 19.548 49.9671 19.52 50.0391 19.496C50.1111 19.464 50.1631 19.448 50.1951 19.448C50.2591 19.448 50.3391 19.484 50.4351 19.556C50.5391 19.62 50.6351 19.7 50.7231 19.796C50.8111 19.884 50.8631 19.96 50.8791 20.024C50.8791 20.056 50.8791 20.088 50.8791 20.12C50.8871 20.152 50.8951 20.184 50.9031 20.216C50.9351 20.32 50.9511 20.46 50.9511 20.636C50.9591 20.812 50.9551 20.972 50.9391 21.116C50.9231 21.26 50.8951 21.344 50.8551 21.368C50.8551 21.368 50.8551 21.38 50.8551 21.404C50.8631 21.42 50.8831 21.428 50.9151 21.428C50.9151 21.46 50.9151 21.48 50.9151 21.488C50.8751 21.488 50.8591 21.524 50.8671 21.596C50.8751 21.66 50.8991 21.732 50.9391 21.812C50.9871 21.892 51.0351 21.956 51.0831 22.004C51.1791 22.1 51.2191 22.192 51.2031 22.28C51.1871 22.36 51.1151 22.416 50.9871 22.448ZM53.1614 22.652C53.0974 22.668 53.0134 22.676 52.9094 22.676C52.8054 22.668 52.7134 22.656 52.6334 22.64C52.5614 22.616 52.5254 22.592 52.5254 22.568C52.5254 22.528 52.5054 22.508 52.4654 22.508C52.4654 22.508 52.4454 22.492 52.4054 22.46C52.3734 22.428 52.3214 22.396 52.2494 22.364C52.1774 22.252 52.1414 22.132 52.1414 22.004C52.1414 21.868 52.1774 21.656 52.2494 21.368C52.2734 21.168 52.3494 20.936 52.4774 20.672C52.6134 20.4 52.7774 20.124 52.9694 19.844C53.1614 19.564 53.3614 19.312 53.5694 19.088C53.7854 18.864 53.9814 18.7 54.1574 18.596C54.2694 18.484 54.4054 18.424 54.5654 18.416C54.7254 18.408 54.8774 18.444 55.0214 18.524C55.1014 18.564 55.1814 18.628 55.2614 18.716C55.3414 18.804 55.4174 18.9 55.4894 19.004C55.5614 19.108 55.6214 19.212 55.6694 19.316C55.6934 19.404 55.7054 19.484 55.7054 19.556C55.7134 19.62 55.7134 19.7 55.7054 19.796C55.7054 19.892 55.6934 20.036 55.6694 20.228C55.6294 20.372 55.5934 20.548 55.5614 20.756C55.5374 20.964 55.5254 21.144 55.5254 21.296C55.5094 21.448 55.5254 21.556 55.5734 21.62C55.6294 21.684 55.7094 21.688 55.8134 21.632C55.9094 21.584 56.0014 21.564 56.0894 21.572C56.1774 21.572 56.2454 21.596 56.2934 21.644C56.3494 21.692 56.3774 21.764 56.3774 21.86C56.3774 21.956 56.3294 22.056 56.2334 22.16C56.1454 22.256 56.0334 22.34 55.8974 22.412C55.7694 22.476 55.6454 22.508 55.5254 22.508C55.4374 22.508 55.3534 22.456 55.2734 22.352C55.1934 22.24 55.1214 22.108 55.0574 21.956C55.0014 21.796 54.9494 21.644 54.9014 21.5L54.8294 21.224L54.3134 21.716C54.2094 21.828 54.1054 21.932 54.0014 22.028C53.9054 22.116 53.8454 22.18 53.8214 22.22C53.7814 22.292 53.7054 22.364 53.5934 22.436C53.4894 22.508 53.3454 22.58 53.1614 22.652ZM53.1974 21.944C53.3334 21.864 53.4894 21.748 53.6654 21.596C53.8414 21.436 54.0134 21.264 54.1814 21.08C54.3494 20.888 54.4894 20.712 54.6014 20.552C54.7374 20.368 54.8414 20.196 54.9134 20.036C54.9854 19.876 55.0374 19.724 55.0694 19.58C55.0374 19.492 54.9854 19.4 54.9134 19.304C54.8414 19.2 54.7774 19.144 54.7214 19.136C54.5454 19.136 54.3574 19.248 54.1574 19.472C53.9654 19.688 53.7774 19.924 53.5934 20.18C53.5614 20.22 53.5174 20.284 53.4614 20.372C53.4054 20.46 53.3494 20.544 53.2934 20.624C53.2454 20.696 53.2134 20.744 53.1974 20.768C53.1734 20.8 53.1254 20.892 53.0534 21.044C52.9894 21.188 52.9254 21.336 52.8614 21.488C52.7974 21.632 52.7654 21.728 52.7654 21.776C52.7654 21.824 52.7694 21.876 52.7774 21.932C52.7934 21.988 52.8334 22.024 52.8974 22.04C52.9614 22.056 53.0614 22.024 53.1974 21.944ZM57.5338 22.976L57.6298 22.412C57.6858 22.052 57.7418 21.716 57.7978 21.404C57.8538 21.092 57.9058 20.84 57.9538 20.648C58.0098 20.456 58.0458 20.36 58.0618 20.36C58.0938 20.344 58.1098 20.312 58.1098 20.264C58.1098 20.208 58.1138 20.14 58.1218 20.06L58.1458 19.76L57.9658 19.784C57.8698 19.768 57.8138 19.748 57.7978 19.724C57.7818 19.7 57.7738 19.628 57.7738 19.508C57.7818 19.428 57.7938 19.372 57.8098 19.34C57.8258 19.3 57.8698 19.276 57.9418 19.268C58.0698 19.228 58.2018 19.156 58.3378 19.052C58.4818 18.94 58.5498 18.844 58.5418 18.764C58.5498 18.7 58.5778 18.572 58.6258 18.38C58.6818 18.18 58.7538 17.96 58.8418 17.72C58.9298 17.472 59.0258 17.248 59.1298 17.048C59.1618 16.944 59.1898 16.84 59.2138 16.736C59.2458 16.624 59.2618 16.54 59.2618 16.484C59.2778 16.42 59.2978 16.348 59.3218 16.268C59.3458 16.188 59.3578 16.132 59.3578 16.1C59.4058 16.012 59.4138 15.964 59.3818 15.956C59.3498 15.94 59.2738 15.94 59.1538 15.956C59.1538 15.956 59.1178 15.964 59.0458 15.98C58.9738 15.988 58.8938 15.988 58.8058 15.98C58.6778 16.012 58.5898 16.024 58.5418 16.016C58.4938 16.008 58.4538 15.972 58.4218 15.908C58.3498 15.836 58.3178 15.76 58.3258 15.68C58.3418 15.6 58.3858 15.564 58.4578 15.572C58.4978 15.58 58.5298 15.576 58.5538 15.56C58.5858 15.536 58.6178 15.508 58.6498 15.476C58.6818 15.444 58.7578 15.408 58.8778 15.368C58.9978 15.32 59.1458 15.292 59.3218 15.284C59.4018 15.276 59.4978 15.26 59.6098 15.236C59.7298 15.204 59.8378 15.168 59.9338 15.128C60.0298 15.088 60.0858 15.06 60.1018 15.044C60.1018 15.004 60.1218 14.984 60.1618 14.984C60.2098 14.984 60.2498 14.984 60.2818 14.984C60.3138 14.976 60.3738 14.968 60.4618 14.96C60.5578 14.944 60.6178 14.94 60.6418 14.948C60.7058 14.916 60.8458 14.892 61.0618 14.876C61.2778 14.852 61.6058 14.844 62.0458 14.852C62.1738 14.86 62.2818 14.868 62.3698 14.876C62.4578 14.876 62.5018 14.86 62.5018 14.828C62.5018 14.828 62.5538 14.836 62.6578 14.852C62.7618 14.86 62.8778 14.884 63.0058 14.924C63.1978 14.932 63.3498 14.96 63.4618 15.008C63.5738 15.048 63.6538 15.112 63.7018 15.2C63.7578 15.288 63.7858 15.408 63.7858 15.56L63.8338 15.836L63.5098 15.728C63.4458 15.72 63.3338 15.708 63.1738 15.692C63.0138 15.668 62.8378 15.648 62.6458 15.632C62.4618 15.616 62.2858 15.604 62.1178 15.596C61.9498 15.58 61.8298 15.58 61.7578 15.596C61.6778 15.596 61.5938 15.604 61.5058 15.62C61.4178 15.628 61.3298 15.628 61.2418 15.62C61.1298 15.652 61.0218 15.668 60.9178 15.668C60.8218 15.668 60.7578 15.664 60.7258 15.656C60.6458 15.688 60.5738 15.704 60.5098 15.704C60.4538 15.704 60.4018 15.724 60.3538 15.764C60.3538 15.764 60.3298 15.776 60.2818 15.8C60.2418 15.824 60.2058 15.836 60.1738 15.836C60.1418 15.828 60.1258 15.844 60.1258 15.884C60.1258 15.924 60.1178 16.004 60.1018 16.124C60.1098 16.236 60.1058 16.336 60.0898 16.424C60.0738 16.512 60.0418 16.624 59.9938 16.76C59.9458 16.896 59.8698 17.096 59.7658 17.36C59.7178 17.496 59.6618 17.648 59.5978 17.816C59.5338 17.976 59.4938 18.1 59.4778 18.188C59.3898 18.428 59.3058 18.612 59.2258 18.74C59.2418 18.82 59.2538 18.864 59.2618 18.872C59.2778 18.872 59.3138 18.848 59.3698 18.8C59.4338 18.824 59.4858 18.824 59.5258 18.8C59.5738 18.776 59.6138 18.76 59.6458 18.752C59.6778 18.752 59.7098 18.752 59.7418 18.752C59.7818 18.752 59.8298 18.76 59.8858 18.776C59.8778 18.744 59.9098 18.728 59.9818 18.728C60.0538 18.72 60.1338 18.712 60.2218 18.704C60.3098 18.664 60.4178 18.636 60.5458 18.62C60.6818 18.596 60.7778 18.568 60.8338 18.536C60.9218 18.496 60.9818 18.476 61.0138 18.476C61.0538 18.476 61.1258 18.5 61.2298 18.548C61.2858 18.62 61.3258 18.708 61.3498 18.812C61.3738 18.908 61.3818 19 61.3738 19.088C61.3658 19.168 61.3418 19.224 61.3018 19.256C61.3018 19.256 61.2618 19.272 61.1818 19.304C61.1018 19.328 61.0178 19.356 60.9298 19.388C60.8418 19.372 60.7578 19.372 60.6778 19.388C60.5978 19.404 60.5418 19.42 60.5098 19.436C60.3418 19.54 60.0658 19.576 59.6818 19.544C59.6258 19.584 59.5578 19.604 59.4778 19.604C59.4058 19.604 59.3498 19.62 59.3098 19.652C59.2858 19.652 59.2378 19.66 59.1658 19.676C59.1018 19.684 59.0538 19.684 59.0218 19.676C58.9898 19.676 58.9698 19.7 58.9618 19.748C58.9538 19.788 58.9498 19.824 58.9498 19.856C58.9498 19.888 58.9378 19.92 58.9138 19.952C58.8898 19.984 58.8778 20 58.8778 20C58.8298 20.048 58.8018 20.1 58.7938 20.156C58.7938 20.156 58.7898 20.204 58.7818 20.3C58.7818 20.396 58.7618 20.5 58.7218 20.612C58.6578 20.82 58.5978 21.032 58.5418 21.248C58.4858 21.464 58.4458 21.652 58.4218 21.812C58.3978 21.964 58.3938 22.056 58.4098 22.088C58.4418 22.12 58.4738 22.148 58.5058 22.172C58.5378 22.196 58.5738 22.212 58.6138 22.22C58.6538 22.188 58.6898 22.2 58.7218 22.256C58.7618 22.312 58.7858 22.384 58.7938 22.472C58.7858 22.504 58.7498 22.568 58.6858 22.664C58.6218 22.752 58.5458 22.852 58.4578 22.964C58.3538 23.212 58.2418 23.348 58.1218 23.372C58.0098 23.396 57.8738 23.336 57.7138 23.192L57.5338 22.976ZM62.9284 22.604C62.8324 22.62 62.7284 22.604 62.6164 22.556C62.5044 22.508 62.4044 22.44 62.3164 22.352C62.2364 22.264 62.1844 22.172 62.1604 22.076C62.1284 21.908 62.1484 21.7 62.2204 21.452C62.3004 21.196 62.4124 20.928 62.5564 20.648C62.7084 20.36 62.8764 20.084 63.0604 19.82C63.2524 19.556 63.4484 19.328 63.6484 19.136C63.8564 18.936 64.0484 18.8 64.2244 18.728C64.3124 18.672 64.3804 18.636 64.4284 18.62C64.4844 18.596 64.5404 18.592 64.5964 18.608C64.6604 18.624 64.7524 18.664 64.8724 18.728C64.9844 18.76 65.0684 18.796 65.1244 18.836C65.1804 18.876 65.2524 18.956 65.3404 19.076C65.4044 19.196 65.4524 19.316 65.4844 19.436C65.5164 19.556 65.5444 19.692 65.5684 19.844C65.6324 20.044 65.6564 20.176 65.6404 20.24C65.6244 20.296 65.6004 20.34 65.5684 20.372C65.5044 20.452 65.4884 20.492 65.5204 20.492C65.5204 20.492 65.5164 20.508 65.5084 20.54C65.5084 20.564 65.4924 20.604 65.4604 20.66C65.4044 20.836 65.3604 21.02 65.3284 21.212C65.3044 21.396 65.3084 21.548 65.3404 21.668C65.4044 21.844 65.5204 21.948 65.6884 21.98C65.8564 22.012 66.0284 21.94 66.2044 21.764C66.2924 21.7 66.3764 21.644 66.4564 21.596C66.5364 21.54 66.5764 21.544 66.5764 21.608C66.5764 21.608 66.5884 21.62 66.6124 21.644C66.6364 21.66 66.6644 21.668 66.6964 21.668C66.7364 21.668 66.7604 21.684 66.7684 21.716C66.7844 21.748 66.7844 21.792 66.7684 21.848C66.7604 21.896 66.7364 21.952 66.6964 22.016C66.5764 22.136 66.5164 22.216 66.5164 22.256C66.5164 22.256 66.5004 22.272 66.4684 22.304C66.4444 22.328 66.4004 22.368 66.3364 22.424C66.1924 22.512 66.0084 22.556 65.7844 22.556C65.5684 22.556 65.4004 22.512 65.2804 22.424C65.1604 22.336 65.0484 22.216 64.9444 22.064C64.8484 21.912 64.7844 21.78 64.7524 21.668L64.6924 21.548L64.3444 21.776C64.2564 21.864 64.1604 21.948 64.0564 22.028C63.9604 22.108 63.8964 22.164 63.8644 22.196C63.8404 22.228 63.8124 22.256 63.7804 22.28C63.7564 22.304 63.7284 22.316 63.6964 22.316C63.6644 22.316 63.6364 22.316 63.6124 22.316C63.5884 22.316 63.5764 22.316 63.5764 22.316C63.5764 22.348 63.5364 22.388 63.4564 22.436C63.3844 22.484 63.2964 22.524 63.1924 22.556C63.0964 22.588 63.0084 22.604 62.9284 22.604ZM62.8084 21.956C62.8564 21.956 62.9404 21.92 63.0604 21.848C63.1884 21.768 63.3284 21.676 63.4804 21.572C63.6404 21.468 63.7804 21.364 63.9004 21.26C64.0284 21.156 64.1164 21.076 64.1644 21.02C64.1964 20.988 64.2484 20.936 64.3204 20.864C64.3924 20.784 64.4564 20.716 64.5124 20.66C64.6964 20.452 64.8244 20.224 64.8964 19.976C64.9684 19.72 64.9604 19.52 64.8724 19.376C64.8404 19.288 64.8004 19.24 64.7524 19.232C64.7044 19.224 64.6044 19.252 64.4524 19.316C64.3564 19.372 64.2364 19.48 64.0924 19.64C63.9564 19.792 63.8084 19.972 63.6484 20.18C63.4964 20.38 63.3524 20.588 63.2164 20.804C63.0804 21.02 62.9684 21.22 62.8804 21.404C62.7924 21.588 62.7484 21.732 62.7484 21.836C62.7484 21.868 62.7564 21.896 62.7724 21.92C62.7964 21.944 62.8084 21.956 62.8084 21.956ZM67.8383 22.628C67.8143 22.636 67.7743 22.632 67.7183 22.616C67.6623 22.6 67.6063 22.58 67.5503 22.556C67.4943 22.532 67.4583 22.512 67.4423 22.496C67.4103 22.464 67.3783 22.416 67.3463 22.352C67.3223 22.288 67.3223 22.196 67.3463 22.076C67.3703 21.948 67.4503 21.784 67.5863 21.584C67.6263 21.504 67.6743 21.384 67.7303 21.224C67.7863 21.064 67.8423 20.896 67.8983 20.72C67.9623 20.536 68.0183 20.372 68.0663 20.228C68.1223 20.084 68.1623 19.984 68.1863 19.928C68.2023 19.792 68.1943 19.696 68.1623 19.64C68.1383 19.576 68.0703 19.54 67.9583 19.532C67.8783 19.532 67.8143 19.524 67.7663 19.508C67.7263 19.492 67.7063 19.412 67.7063 19.268C67.7223 19.156 67.7503 19.08 67.7903 19.04C67.8383 18.992 67.9023 18.94 67.9823 18.884C68.0623 18.844 68.1423 18.816 68.2223 18.8C68.3103 18.784 68.3943 18.78 68.4743 18.788C68.5543 18.796 68.6183 18.824 68.6663 18.872C68.7223 18.904 68.7583 18.976 68.7743 19.088C68.7903 19.192 68.7983 19.3 68.7983 19.412C68.8063 19.524 68.8143 19.608 68.8223 19.664C68.9023 19.6 69.0103 19.512 69.1463 19.4C69.2903 19.28 69.4143 19.168 69.5183 19.064C69.6463 18.976 69.7983 18.888 69.9743 18.8C70.1503 18.704 70.2783 18.656 70.3583 18.656C70.4463 18.656 70.5343 18.68 70.6223 18.728C70.7103 18.768 70.7703 18.82 70.8023 18.884C70.8823 19.02 70.9183 19.14 70.9103 19.244C70.9103 19.348 70.8663 19.456 70.7783 19.568C70.6983 19.672 70.5983 19.744 70.4783 19.784C70.3663 19.824 70.2943 19.844 70.2623 19.844C70.2143 19.844 70.1543 19.808 70.0823 19.736C70.0103 19.664 69.9703 19.604 69.9623 19.556C69.9623 19.532 69.9103 19.556 69.8063 19.628C69.7103 19.692 69.6023 19.776 69.4823 19.88C69.3623 19.976 69.2623 20.064 69.1823 20.144C69.0463 20.312 68.9023 20.54 68.7503 20.828C68.5983 21.116 68.4183 21.464 68.2103 21.872C68.1143 22.072 68.0463 22.244 68.0063 22.388C67.9663 22.524 67.9103 22.604 67.8383 22.628ZM75.6065 22.736C75.4545 22.776 75.3425 22.792 75.2705 22.784C75.1985 22.768 75.1025 22.7 74.9825 22.58C74.9105 22.468 74.8465 22.368 74.7905 22.28C74.7345 22.192 74.6985 22.036 74.6825 21.812C74.6745 21.66 74.6825 21.496 74.7065 21.32C74.7385 21.136 74.7505 21.004 74.7425 20.924C74.8065 20.628 74.8305 20.392 74.8145 20.216C74.8065 20.032 74.7825 19.94 74.7425 19.94C74.6545 19.924 74.4945 20.012 74.2625 20.204C74.0385 20.388 73.7785 20.632 73.4825 20.936C73.1945 21.232 72.9065 21.544 72.6185 21.872C72.4665 22.08 72.3585 22.236 72.2945 22.34C72.2305 22.436 72.1825 22.484 72.1505 22.484C72.0945 22.484 72.0185 22.464 71.9225 22.424C71.8265 22.384 71.7425 22.336 71.6705 22.28C71.5985 22.216 71.5585 22.16 71.5505 22.112C71.5505 22.08 71.5705 21.996 71.6105 21.86C71.6505 21.716 71.6985 21.552 71.7545 21.368C71.8185 21.184 71.8745 21.012 71.9225 20.852C71.9705 20.692 72.0065 20.58 72.0305 20.516C72.1025 20.308 72.1865 20.056 72.2825 19.76C72.3865 19.456 72.4785 19.188 72.5585 18.956C72.5905 18.852 72.6465 18.704 72.7265 18.512C72.8065 18.312 72.8865 18.112 72.9665 17.912C73.0465 17.712 73.1025 17.564 73.1345 17.468C73.1585 17.404 73.2025 17.292 73.2665 17.132C73.3305 16.964 73.3985 16.78 73.4705 16.58C73.5505 16.38 73.6225 16.196 73.6865 16.028C73.7585 15.852 73.8065 15.724 73.8305 15.644C73.8225 15.572 73.8265 15.508 73.8425 15.452C73.8665 15.388 73.8905 15.34 73.9145 15.308C73.9465 15.308 73.9825 15.308 74.0225 15.308C74.0625 15.3 74.0825 15.296 74.0825 15.296C74.0825 15.28 74.1145 15.296 74.1785 15.344C74.2425 15.392 74.3025 15.452 74.3585 15.524C74.4225 15.588 74.4545 15.644 74.4545 15.692C74.4945 15.796 74.4985 15.932 74.4665 16.1C74.4345 16.26 74.3505 16.504 74.2145 16.832C74.1265 16.96 74.0385 17.152 73.9505 17.408C73.8705 17.664 73.7905 17.88 73.7105 18.056C73.6785 18.112 73.6185 18.232 73.5305 18.416C73.4505 18.6 73.3545 18.816 73.2425 19.064C73.1385 19.312 73.0385 19.564 72.9425 19.82C72.8465 20.068 72.7705 20.292 72.7145 20.492C72.6345 20.684 72.6065 20.812 72.6305 20.876C72.6545 20.94 72.7505 20.868 72.9185 20.66C73.1425 20.42 73.3785 20.176 73.6265 19.928C73.8745 19.68 74.1065 19.472 74.3225 19.304C74.5465 19.128 74.7265 19.048 74.8625 19.064C74.9345 19.08 75.0105 19.128 75.0905 19.208C75.1785 19.288 75.2625 19.38 75.3425 19.484C75.4225 19.588 75.4785 19.688 75.5105 19.784C75.5425 19.904 75.5625 20.008 75.5705 20.096C75.5865 20.184 75.5905 20.316 75.5825 20.492C75.5745 20.66 75.5545 20.928 75.5225 21.296C75.4745 21.568 75.4425 21.764 75.4265 21.884C75.4105 21.996 75.4145 22.076 75.4385 22.124C75.4705 22.172 75.5185 22.224 75.5825 22.28C75.7025 22.376 75.7625 22.46 75.7625 22.532C75.7705 22.604 75.7185 22.672 75.6065 22.736ZM76.9637 22.568C76.9317 22.504 76.8917 22.456 76.8437 22.424C76.7957 22.384 76.7717 22.348 76.7717 22.316C76.7717 22.284 76.7677 22.252 76.7597 22.22C76.7597 22.18 76.7437 22.144 76.7117 22.112C76.6717 22.064 76.6757 21.956 76.7237 21.788C76.7717 21.612 76.8517 21.4 76.9637 21.152C77.0757 20.896 77.2077 20.628 77.3597 20.348C77.4237 20.284 77.4877 20.2 77.5517 20.096C77.6157 19.992 77.6637 19.924 77.6957 19.892C77.6957 19.86 77.7077 19.832 77.7317 19.808C77.7557 19.776 77.7837 19.76 77.8157 19.76V19.688C77.8157 19.648 77.8517 19.58 77.9237 19.484C78.0037 19.388 78.0997 19.284 78.2117 19.172C78.3237 19.052 78.4397 18.94 78.5597 18.836C78.6797 18.724 78.7797 18.644 78.8597 18.596C79.0277 18.484 79.1997 18.416 79.3757 18.392C79.5597 18.368 79.7157 18.408 79.8437 18.512C79.8677 18.536 79.9077 18.576 79.9637 18.632C80.0197 18.688 80.0837 18.752 80.1557 18.824C80.2357 18.888 80.3157 18.956 80.3957 19.028L80.8397 19.424L80.6237 20.024C80.5197 20.344 80.4917 20.624 80.5397 20.864C80.5957 21.104 80.6757 21.312 80.7797 21.488C80.8197 21.576 80.8997 21.66 81.0197 21.74C81.1477 21.82 81.2677 21.868 81.3797 21.884C81.4437 21.892 81.5037 21.916 81.5597 21.956C81.6157 21.996 81.6437 22.06 81.6437 22.148C81.6437 22.228 81.6277 22.292 81.5957 22.34C81.5637 22.388 81.5077 22.42 81.4277 22.436C81.1637 22.468 80.9157 22.404 80.6837 22.244C80.4597 22.084 80.2517 21.82 80.0597 21.452C80.0277 21.404 79.9837 21.316 79.9277 21.188C79.8797 21.052 79.8517 20.964 79.8437 20.924C79.8117 20.964 79.7517 21.04 79.6637 21.152C79.5757 21.256 79.5077 21.332 79.4597 21.38C78.8917 21.956 78.3997 22.344 77.9837 22.544C77.5757 22.736 77.2357 22.744 76.9637 22.568ZM77.3957 21.896C77.3957 21.952 77.4797 21.952 77.6477 21.896C77.8237 21.832 78.0117 21.72 78.2117 21.56C78.4837 21.328 78.7557 21.072 79.0277 20.792C79.3077 20.512 79.5317 20.252 79.6997 20.012L79.9637 19.58C79.8837 19.396 79.7957 19.272 79.6997 19.208C79.6117 19.136 79.5357 19.1 79.4717 19.1C79.3677 19.1 79.2117 19.196 79.0037 19.388C78.8037 19.58 78.5877 19.836 78.3557 20.156C78.1237 20.476 77.9037 20.828 77.6957 21.212C77.6157 21.372 77.5437 21.528 77.4797 21.68C77.4237 21.824 77.3957 21.896 77.3957 21.896ZM83.066 22.916C82.978 22.9 82.886 22.856 82.79 22.784C82.702 22.704 82.622 22.616 82.55 22.52C82.486 22.416 82.442 22.324 82.418 22.244C82.418 22.228 82.406 22.208 82.382 22.184C82.366 22.16 82.358 22.148 82.358 22.148C82.326 22.124 82.306 22.02 82.298 21.836C82.298 21.644 82.31 21.432 82.334 21.2C82.358 20.968 82.386 20.784 82.418 20.648C82.458 20.52 82.518 20.348 82.598 20.132C82.678 19.908 82.746 19.708 82.802 19.532L83.126 18.836L82.646 18.704C82.59 18.688 82.542 18.656 82.502 18.608C82.47 18.56 82.454 18.52 82.454 18.488C82.454 18.424 82.49 18.348 82.562 18.26C82.634 18.164 82.686 18.116 82.718 18.116C82.758 18.124 82.83 18.128 82.934 18.128C83.046 18.128 83.154 18.124 83.258 18.116C83.362 18.108 83.426 18.1 83.45 18.092C83.482 18.076 83.514 18.056 83.546 18.032C83.578 18 83.602 17.956 83.618 17.9C83.658 17.812 83.694 17.732 83.726 17.66C83.758 17.58 83.802 17.492 83.858 17.396C83.914 17.292 83.958 17.204 83.99 17.132C84.03 17.06 84.09 16.96 84.17 16.832C84.21 16.776 84.254 16.708 84.302 16.628C84.35 16.548 84.41 16.48 84.482 16.424C84.554 16.36 84.626 16.332 84.698 16.34C84.778 16.34 84.878 16.392 84.998 16.496C85.062 16.576 85.098 16.636 85.106 16.676C85.114 16.716 85.082 16.792 85.01 16.904C84.946 17.04 84.87 17.176 84.782 17.312C84.702 17.448 84.626 17.584 84.554 17.72C84.426 17.896 84.402 17.996 84.482 18.02C84.562 18.044 84.786 18.028 85.154 17.972C85.386 17.932 85.554 17.944 85.658 18.008C85.762 18.064 85.822 18.16 85.838 18.296C85.862 18.488 85.842 18.604 85.778 18.644C85.714 18.684 85.53 18.704 85.226 18.704C85.034 18.736 84.87 18.756 84.734 18.764C84.598 18.764 84.498 18.764 84.434 18.764C84.33 18.772 84.262 18.776 84.23 18.776C84.198 18.776 84.15 18.784 84.086 18.8C84.022 18.816 83.974 18.844 83.942 18.884C83.918 18.916 83.89 18.964 83.858 19.028C83.826 19.06 83.778 19.144 83.714 19.28C83.65 19.416 83.57 19.564 83.474 19.724C83.362 20.06 83.266 20.396 83.186 20.732C83.106 21.06 83.042 21.38 82.994 21.692C82.962 21.892 82.966 22.032 83.006 22.112C83.046 22.184 83.15 22.228 83.318 22.244C83.406 22.252 83.546 22.252 83.738 22.244C83.938 22.228 84.094 22.204 84.206 22.172C84.294 22.132 84.386 22.092 84.482 22.052C84.578 22.004 84.666 21.956 84.746 21.908C84.818 21.868 84.89 21.828 84.962 21.788C85.034 21.74 85.07 21.716 85.07 21.716C85.11 21.652 85.154 21.632 85.202 21.656C85.25 21.68 85.29 21.74 85.322 21.836C85.322 21.932 85.302 22.032 85.262 22.136C85.222 22.24 85.074 22.364 84.818 22.508C84.458 22.732 84.126 22.868 83.822 22.916C83.526 22.956 83.274 22.956 83.066 22.916Z" fill="#D4D4D8"/>
<path d="M2.574 24.09C1.734 24.09 1.344 23.676 1.404 22.848C1.56 20.988 2.166 16.608 3.222 9.708C3.282 9.324 3.432 9.054 3.672 8.898C3.912 8.742 4.23 8.664 4.626 8.664C5.01 8.664 5.268 8.724 5.4 8.844C5.544 8.964 5.616 9.162 5.616 9.438C5.616 9.522 5.604 9.684 5.58 9.924C5.496 10.728 5.286 11.88 4.95 13.38C5.61 11.676 6.342 10.476 7.146 9.78C7.95 9.084 8.844 8.736 9.828 8.736C10.608 8.736 11.22 9.012 11.664 9.564C12.12 10.116 12.348 10.896 12.348 11.904C12.348 12.3 12.294 12.792 12.186 13.38C12.786 11.724 13.488 10.536 14.292 9.816C15.096 9.096 16.02 8.736 17.064 8.736C17.904 8.736 18.546 9.006 18.99 9.546C19.446 10.086 19.674 10.842 19.674 11.814C19.674 12.234 19.632 12.726 19.548 13.29C19.464 13.854 19.35 14.544 19.206 15.36L18.81 17.574C18.666 18.378 18.522 19.314 18.378 20.382C18.234 21.45 18.138 22.266 18.09 22.83C18.054 23.286 17.934 23.61 17.73 23.802C17.526 23.994 17.202 24.09 16.758 24.09C15.906 24.09 15.48 23.73 15.48 23.01C15.48 22.602 15.546 21.96 15.678 21.084C15.822 20.196 16.02 19.05 16.272 17.646L16.704 15.252C16.956 13.812 17.082 12.816 17.082 12.264C17.082 11.856 16.998 11.55 16.83 11.346C16.662 11.13 16.434 11.022 16.146 11.022C15.57 11.022 14.976 11.394 14.364 12.138C13.752 12.87 13.158 14.1 12.582 15.828C12.018 17.556 11.562 19.824 11.214 22.632C11.142 23.184 11.004 23.568 10.8 23.784C10.608 23.988 10.272 24.09 9.792 24.09C9.384 24.09 9.084 24.006 8.892 23.838C8.712 23.658 8.622 23.346 8.622 22.902C8.622 22.326 8.688 21.63 8.82 20.814C8.952 19.986 9.12 19.038 9.324 17.97C9.876 15.066 10.152 13.194 10.152 12.354C10.152 11.898 10.062 11.562 9.882 11.346C9.714 11.13 9.45 11.022 9.09 11.022C8.502 11.022 7.89 11.364 7.254 12.048C6.63 12.72 6.018 13.932 5.418 15.684C4.818 17.436 4.32 19.812 3.924 22.812C3.816 23.664 3.366 24.09 2.574 24.09ZM32.5021 8.682C32.9701 8.646 33.3181 8.718 33.5461 8.898C33.7741 9.078 33.8881 9.336 33.8881 9.672C33.8881 10.296 33.5161 10.674 32.7721 10.806C31.8121 10.986 30.2521 11.076 28.0921 11.076H27.3181C26.9461 13.008 26.6521 14.574 26.4361 15.774L30.3601 15.702C30.8041 15.702 31.0981 15.78 31.2421 15.936C31.3981 16.08 31.4761 16.29 31.4761 16.566C31.4761 16.974 31.3561 17.292 31.1161 17.52C30.8881 17.736 30.5461 17.844 30.0901 17.844L26.0761 17.88C25.6921 20.388 25.4641 22.098 25.3921 23.01C25.3441 23.73 24.9181 24.09 24.1141 24.09C23.6821 24.09 23.3581 23.994 23.1421 23.802C22.9381 23.61 22.8361 23.346 22.8361 23.01C22.8361 22.626 22.8901 22.038 22.9981 21.246C23.1181 20.454 23.2981 19.35 23.5381 17.934L22.4941 17.952C22.2301 17.952 22.0081 17.904 21.8281 17.808C21.6601 17.7 21.5761 17.478 21.5761 17.142C21.5761 16.746 21.6841 16.428 21.9001 16.188C22.1161 15.948 22.4161 15.828 22.8001 15.828L23.8981 15.81C24.0421 15.006 24.3241 13.542 24.7441 11.418L24.8161 11.04L23.8081 10.986C23.2321 10.938 22.8001 10.818 22.5121 10.626C22.2361 10.434 22.0981 10.134 22.0981 9.726C22.0981 9.39 22.2061 9.15 22.4221 9.006C22.6381 8.862 22.9861 8.79 23.4661 8.79C23.9581 8.79 24.6721 8.802 25.6081 8.826C26.3041 8.862 27.0121 8.88 27.7321 8.88C29.1961 8.88 30.7861 8.814 32.5021 8.682Z" fill="#F88000"/>
</svg>
