<svg width="95" height="31" viewBox="0 0 95 31" fill="none" xmlns="http://www.w3.org/2000/svg">
<path d="M54.9642 17.612C54.4788 18.312 53.9375 19.1987 53.3402 20.272C52.7428 21.3453 52.2668 22.246 51.9122 22.974L51.3802 24.066C50.4188 26.0633 49.9382 27.496 49.9382 28.364C49.9382 28.3827 49.9382 28.42 49.9382 28.476C49.9475 28.532 49.9522 28.5787 49.9522 28.616C49.9522 28.7653 49.9102 28.84 49.8262 28.84C49.6675 28.84 49.4948 28.7 49.3082 28.42C49.1215 28.1493 49.0282 27.7853 49.0282 27.328C49.0282 26.908 49.1262 26.3947 49.3222 25.788C49.5275 25.1813 49.8262 24.4907 50.2182 23.716C50.6102 22.932 50.9368 22.302 51.1982 21.826C51.4688 21.35 51.8235 20.7293 52.2622 19.964C52.2902 19.908 52.3042 19.866 52.3042 19.838C52.2855 19.7913 52.2622 19.768 52.2342 19.768C52.1782 19.768 52.1222 19.7913 52.0662 19.838C51.5155 20.286 50.7922 21.0467 49.8962 22.12C49.0002 23.1933 48.2442 24.1547 47.6282 25.004L46.6902 26.278C46.5408 26.502 46.4195 26.614 46.3262 26.614C46.2982 26.614 46.2748 26.6047 46.2562 26.586C46.2375 26.5673 46.2235 26.544 46.2142 26.516C46.2048 26.4787 46.1955 26.446 46.1862 26.418C46.1862 26.39 46.1862 26.3667 46.1862 26.348V26.32C46.2515 25.7413 46.3448 24.934 46.4662 23.898C46.5968 22.862 46.7042 21.9893 46.7882 21.28C46.8722 20.5707 46.9142 20.2067 46.9142 20.188C46.9142 20.0947 46.8955 20.048 46.8582 20.048C46.8395 20.048 46.8115 20.062 46.7742 20.09C46.7462 20.118 46.7228 20.146 46.7042 20.174L46.6762 20.216C46.2748 20.8133 45.8455 21.588 45.3882 22.54C44.9308 23.4827 44.5622 24.318 44.2822 25.046C44.0768 25.5687 43.8668 26.0493 43.6522 26.488C43.4375 26.9173 43.2462 27.2533 43.0782 27.496C42.9195 27.7293 42.7748 27.9253 42.6442 28.084C42.5042 28.252 42.3968 28.364 42.3222 28.42L42.2102 28.504C42.1075 28.588 42.0282 28.63 41.9722 28.63C41.9162 28.63 41.8882 28.5833 41.8882 28.49L41.9022 28.364C41.9955 27.8693 42.4015 26.9267 43.1202 25.536C43.8482 24.1453 44.5528 22.876 45.2342 21.728L46.2562 20.02L47.0262 18.69C47.4088 17.598 47.7028 17.052 47.9082 17.052C48.0482 17.052 48.1182 17.29 48.1182 17.766C47.8288 21.238 47.6842 23.2213 47.6842 23.716C47.6842 23.856 47.7122 23.926 47.7682 23.926C47.8242 23.926 47.8895 23.8747 47.9642 23.772C48.0855 23.6133 48.2535 23.3987 48.4682 23.128C48.6828 22.8573 49.0935 22.372 49.7002 21.672C50.3068 20.972 50.8762 20.342 51.4082 19.782C51.9495 19.222 52.5375 18.6853 53.1722 18.172C53.8068 17.6587 54.3295 17.346 54.7402 17.234C54.8335 17.2153 54.8942 17.206 54.9222 17.206C55.0342 17.206 55.0902 17.248 55.0902 17.332C55.0902 17.4067 55.0482 17.5 54.9642 17.612ZM53.181 26.642C52.089 27.6687 51.389 28.182 51.081 28.182C50.9224 28.182 50.843 28.0747 50.843 27.86C50.843 27.6453 50.927 27.3327 51.095 26.922C51.263 26.5113 51.431 26.152 51.599 25.844L51.851 25.396C52.5604 24.1547 53.097 23.2633 53.461 22.722C53.6197 22.4887 53.8204 22.2927 54.063 22.134C54.315 21.966 54.5484 21.882 54.763 21.882C54.8377 21.882 54.875 21.9147 54.875 21.98C54.875 22.0267 54.8424 22.1153 54.777 22.246C54.665 22.4513 54.3897 22.9413 53.951 23.716C53.5124 24.4907 53.251 24.9573 53.167 25.116C52.7844 25.788 52.593 26.236 52.593 26.46C52.593 26.544 52.621 26.586 52.677 26.586C52.7704 26.586 53.069 26.3527 53.573 25.886C53.965 25.494 54.483 24.9293 55.127 24.192C55.155 24.164 55.1784 24.15 55.197 24.15C55.2157 24.15 55.225 24.1687 55.225 24.206C55.225 24.3833 55.155 24.556 55.015 24.724C54.3244 25.4893 53.713 26.1287 53.181 26.642ZM55.043 21.084C54.8097 21.084 54.693 20.944 54.693 20.664C54.693 20.4027 54.791 20.1413 54.987 19.88C55.183 19.6093 55.3977 19.474 55.631 19.474C55.911 19.474 56.051 19.6327 56.051 19.95C56.051 20.2113 55.9437 20.468 55.729 20.72C55.5144 20.9627 55.2857 21.084 55.043 21.084ZM58.482 26.642C57.39 27.6687 56.6713 28.182 56.326 28.182C56.1673 28.182 56.088 28.098 56.088 27.93C56.088 27.8273 56.1113 27.7013 56.158 27.552C56.2047 27.3933 56.2607 27.2393 56.326 27.09C56.4007 26.9313 56.4707 26.7867 56.536 26.656C56.6013 26.5253 56.6667 26.404 56.732 26.292C56.7973 26.18 56.83 26.1193 56.83 26.11C56.97 25.858 57.18 25.508 57.46 25.06C57.74 24.6027 57.964 24.2293 58.132 23.94C58.3 23.6413 58.384 23.4593 58.384 23.394C58.384 23.3473 58.3607 23.324 58.314 23.324L58.118 23.394C57.6887 23.702 57.1753 24.1827 56.578 24.836C55.9807 25.48 55.4907 26.0493 55.108 26.544L54.534 27.272C54.4127 27.4493 54.3053 27.594 54.212 27.706C54.1187 27.818 53.9833 27.9253 53.806 28.028C53.638 28.14 53.4653 28.196 53.288 28.196C53.1573 28.196 53.092 28.1587 53.092 28.084C53.092 28.0093 53.1807 27.7947 53.358 27.44C53.5353 27.076 53.7127 26.7307 53.89 26.404L54.156 25.928L55.528 23.52C55.668 23.2867 55.78 23.1093 55.864 22.988C55.9573 22.8573 56.0833 22.6987 56.242 22.512C56.4007 22.316 56.5687 22.1713 56.746 22.078C56.9327 21.9847 57.1287 21.9287 57.334 21.91C57.4087 21.91 57.446 21.9427 57.446 22.008C57.446 22.064 57.432 22.1107 57.404 22.148C57.1893 22.484 56.858 23.0393 56.41 23.814C55.9713 24.5887 55.6913 25.0927 55.57 25.326C55.542 25.382 55.528 25.424 55.528 25.452C55.528 25.4707 55.5373 25.48 55.556 25.48C55.5747 25.48 55.6213 25.452 55.696 25.396C55.8733 25.1907 56.102 24.934 56.382 24.626C56.6713 24.318 57.1567 23.856 57.838 23.24C58.5193 22.6147 59.0793 22.1947 59.518 21.98C59.6207 21.9333 59.7187 21.91 59.812 21.91C59.9427 21.91 60.008 21.9847 60.008 22.134C59.9333 22.5727 59.574 23.324 58.93 24.388C58.2207 25.5547 57.866 26.2453 57.866 26.46C57.866 26.5347 57.8987 26.572 57.964 26.572C58.0107 26.572 58.062 26.558 58.118 26.53C58.1833 26.4927 58.2533 26.446 58.328 26.39C58.4027 26.3247 58.4633 26.2687 58.51 26.222C58.566 26.1753 58.636 26.1147 58.72 26.04C58.804 25.956 58.8553 25.9047 58.874 25.886C59.266 25.494 59.784 24.9293 60.428 24.192C60.456 24.164 60.4793 24.15 60.498 24.15C60.5167 24.15 60.526 24.1687 60.526 24.206C60.526 24.3833 60.456 24.556 60.316 24.724C59.6253 25.4893 59.014 26.1287 58.482 26.642ZM63.1707 27.118C62.396 27.8273 61.864 28.182 61.5747 28.182C61.444 28.182 61.3787 28.1073 61.3787 27.958C61.3787 27.7713 61.458 27.4867 61.6167 27.104C61.7847 26.7213 61.9527 26.3853 62.1207 26.096L62.3727 25.662C62.41 25.5967 62.4287 25.5547 62.4287 25.536C62.4287 25.5173 62.4193 25.508 62.4007 25.508C62.3633 25.508 62.2933 25.5593 62.1907 25.662C61.9107 25.97 61.5887 26.3013 61.2247 26.656C60.87 27.0013 60.5807 27.272 60.3567 27.468L60.0347 27.748C59.6707 28.028 59.3907 28.168 59.1947 28.168C58.9893 28.168 58.8867 28.0093 58.8867 27.692C58.8867 27.5333 58.9333 27.2907 59.0267 26.964C59.1107 26.6373 59.176 26.418 59.2227 26.306C59.4373 25.7833 59.7033 25.2747 60.0207 24.78C60.3473 24.2853 60.73 23.814 61.1687 23.366C61.6073 22.9087 62.116 22.54 62.6947 22.26C63.2827 21.98 63.8893 21.84 64.5147 21.84C65.0373 21.84 65.2987 21.9193 65.2987 22.078C65.2987 22.1713 65.182 22.218 64.9487 22.218C64.09 22.218 63.2827 22.5867 62.5267 23.324C61.78 24.052 61.1733 24.892 60.7067 25.844C60.576 26.1053 60.5107 26.3247 60.5107 26.502C60.5107 26.6047 60.5433 26.656 60.6087 26.656C60.7207 26.656 60.8653 26.5767 61.0427 26.418C61.1547 26.3153 61.304 26.18 61.4907 26.012C61.6867 25.844 61.9993 25.522 62.4287 25.046C62.858 24.57 63.1987 24.1267 63.4507 23.716C63.488 23.6413 63.544 23.5527 63.6187 23.45C63.7027 23.3473 63.8567 23.212 64.0807 23.044C64.3047 22.8667 64.5287 22.778 64.7527 22.778C64.874 22.778 64.9347 22.8107 64.9347 22.876C64.9347 22.8947 64.9207 22.9273 64.8927 22.974C64.8553 23.0487 64.748 23.2353 64.5707 23.534C64.4027 23.8327 64.244 24.1173 64.0947 24.388C63.9453 24.6493 63.7867 24.9387 63.6187 25.256C63.4507 25.564 63.3153 25.83 63.2127 26.054C63.1193 26.278 63.0727 26.4273 63.0727 26.502C63.0727 26.558 63.096 26.586 63.1427 26.586C63.2827 26.586 63.6233 26.3153 64.1647 25.774C64.5753 25.3447 65.056 24.8173 65.6067 24.192C65.6347 24.164 65.658 24.15 65.6767 24.15C65.6953 24.15 65.7047 24.1687 65.7047 24.206C65.7047 24.3833 65.6347 24.556 65.4947 24.724C64.58 25.7413 63.8053 26.5393 63.1707 27.118ZM70.0463 22.204H67.8763C67.3443 23.212 66.7283 24.458 66.0283 25.942C66.0003 26.026 65.9537 26.1427 65.8883 26.292C65.8323 26.432 65.7017 26.7027 65.4963 27.104C65.3003 27.496 65.0903 27.8647 64.8663 28.21C64.6517 28.5553 64.381 28.9147 64.0543 29.288C63.7277 29.6707 63.3963 29.9647 63.0603 30.17C62.9763 30.226 62.9017 30.254 62.8363 30.254C62.743 30.254 62.6963 30.1933 62.6963 30.072C62.6963 29.9973 62.7103 29.904 62.7383 29.792C62.7663 29.68 62.7943 29.5867 62.8223 29.512L62.8643 29.414C63.3123 28.3127 64.591 25.914 66.7003 22.218H66.1123C65.9723 22.218 65.9023 22.176 65.9023 22.092C65.9023 22.0267 65.935 21.966 66.0003 21.91C66.075 21.8447 66.1497 21.812 66.2243 21.812H66.9383L68.3243 19.446C68.5483 19.0353 68.6603 18.6807 68.6603 18.382C68.6603 18.2327 68.6323 18.1113 68.5763 18.018C68.5203 17.9153 68.469 17.85 68.4223 17.822L68.3383 17.78C68.2543 17.7333 68.2123 17.682 68.2123 17.626C68.2123 17.5793 68.2357 17.542 68.2823 17.514C68.3383 17.4767 68.385 17.458 68.4223 17.458C69.365 17.402 70.345 17.374 71.3623 17.374C72.2117 17.374 72.8977 17.3973 73.4203 17.444C73.5697 17.444 73.6443 17.5047 73.6443 17.626C73.6443 17.6727 73.6303 17.724 73.6023 17.78C73.2757 18.5453 72.963 19.152 72.6643 19.6C72.6363 19.6467 72.5803 19.67 72.4963 19.67C72.4217 19.67 72.3843 19.614 72.3843 19.502C72.4497 19.306 72.4823 19.0913 72.4823 18.858C72.4823 18.13 72.109 17.766 71.3623 17.766C70.8397 17.766 70.4803 17.8967 70.2843 18.158C69.7897 18.7833 69.057 20.0013 68.0863 21.812C68.3383 21.812 68.707 21.812 69.1923 21.812C69.687 21.8027 70.051 21.798 70.2843 21.798C70.359 21.798 70.4057 21.8073 70.4243 21.826C70.4337 21.8353 70.4383 21.8493 70.4383 21.868C70.4383 21.9333 70.3963 22.0033 70.3123 22.078C70.2377 22.1527 70.149 22.1947 70.0463 22.204ZM71.825 27.118C71.0503 27.8273 70.5183 28.182 70.229 28.182C70.0983 28.182 70.033 28.1073 70.033 27.958C70.033 27.7713 70.1123 27.4867 70.271 27.104C70.439 26.7213 70.607 26.3853 70.775 26.096L71.027 25.662C71.0643 25.5967 71.083 25.5547 71.083 25.536C71.083 25.5173 71.0736 25.508 71.055 25.508C71.0176 25.508 70.9476 25.5593 70.845 25.662C70.565 25.97 70.243 26.3013 69.879 26.656C69.5243 27.0013 69.235 27.272 69.011 27.468L68.689 27.748C68.325 28.028 68.045 28.168 67.849 28.168C67.6436 28.168 67.541 28.0093 67.541 27.692C67.541 27.5333 67.5876 27.2907 67.681 26.964C67.765 26.6373 67.8303 26.418 67.877 26.306C68.0916 25.7833 68.3576 25.2747 68.675 24.78C69.0016 24.2853 69.3843 23.814 69.823 23.366C70.2616 22.9087 70.7703 22.54 71.349 22.26C71.937 21.98 72.5436 21.84 73.169 21.84C73.6916 21.84 73.953 21.9193 73.953 22.078C73.953 22.1713 73.8363 22.218 73.603 22.218C72.7443 22.218 71.937 22.5867 71.181 23.324C70.4343 24.052 69.8276 24.892 69.361 25.844C69.2303 26.1053 69.165 26.3247 69.165 26.502C69.165 26.6047 69.1976 26.656 69.263 26.656C69.375 26.656 69.5196 26.5767 69.697 26.418C69.809 26.3153 69.9583 26.18 70.145 26.012C70.341 25.844 70.6536 25.522 71.083 25.046C71.5123 24.57 71.853 24.1267 72.105 23.716C72.1423 23.6413 72.1983 23.5527 72.273 23.45C72.357 23.3473 72.511 23.212 72.735 23.044C72.959 22.8667 73.183 22.778 73.407 22.778C73.5283 22.778 73.589 22.8107 73.589 22.876C73.589 22.8947 73.575 22.9273 73.547 22.974C73.5096 23.0487 73.4023 23.2353 73.225 23.534C73.057 23.8327 72.8983 24.1173 72.749 24.388C72.5996 24.6493 72.441 24.9387 72.273 25.256C72.105 25.564 71.9696 25.83 71.867 26.054C71.7736 26.278 71.727 26.4273 71.727 26.502C71.727 26.558 71.7503 26.586 71.797 26.586C71.937 26.586 72.2776 26.3153 72.819 25.774C73.2296 25.3447 73.7103 24.8173 74.261 24.192C74.289 24.164 74.3123 24.15 74.331 24.15C74.3496 24.15 74.359 24.1687 74.359 24.206C74.359 24.3833 74.289 24.556 74.149 24.724C73.2343 25.7413 72.4596 26.5393 71.825 27.118ZM76.4466 25.102C76.372 25.102 76.3346 25.074 76.3346 25.018C76.3346 24.99 76.3486 24.9527 76.3766 24.906C76.9273 24.0473 77.2026 23.4593 77.2026 23.142C77.2026 23.058 77.17 23.016 77.1046 23.016C76.8246 23.016 76.1666 23.6507 75.1306 24.92C74.8226 25.312 74.5333 25.718 74.2626 26.138C74.0013 26.558 73.8193 26.88 73.7166 27.104L73.5486 27.426C73.4366 27.65 73.264 27.8553 73.0306 28.042C72.7973 28.238 72.5546 28.336 72.3026 28.336C72.172 28.336 72.1066 28.3033 72.1066 28.238C72.1066 28.182 72.1486 28.0653 72.2326 27.888C72.3073 27.7107 72.4006 27.5147 72.5126 27.3C72.6246 27.0853 72.7366 26.8753 72.8486 26.67C72.9606 26.4647 73.054 26.292 73.1286 26.152L73.2546 25.942L74.7246 23.38C75.294 22.3067 75.8913 21.77 76.5166 21.77C76.6006 21.77 76.6426 21.8027 76.6426 21.868C76.6426 21.952 76.4373 22.302 76.0266 22.918C75.6253 23.5247 75.392 23.912 75.3266 24.08C75.308 24.136 75.2986 24.1687 75.2986 24.178C75.2986 24.1967 75.308 24.206 75.3266 24.206C75.3453 24.206 75.378 24.1827 75.4246 24.136C76.1246 23.3427 76.8666 22.638 77.6506 22.022C77.6973 21.9753 77.8 21.91 77.9586 21.826C78.1173 21.7327 78.2573 21.686 78.3786 21.686C78.556 21.686 78.6446 21.84 78.6446 22.148C78.6446 22.484 78.5326 22.8853 78.3086 23.352C78.0846 23.8187 77.7813 24.2293 77.3986 24.584L77.3426 24.64C77.3053 24.668 77.2633 24.7007 77.2166 24.738C77.1793 24.766 77.128 24.8033 77.0626 24.85C76.9973 24.8967 76.932 24.9387 76.8666 24.976C76.8013 25.004 76.7313 25.032 76.6566 25.06C76.582 25.088 76.512 25.102 76.4466 25.102ZM82.0605 25.886C82.4525 25.494 82.9705 24.9293 83.6145 24.192C83.6425 24.164 83.6658 24.15 83.6845 24.15C83.7032 24.15 83.7125 24.1687 83.7125 24.206C83.7125 24.3833 83.6425 24.556 83.5025 24.724C82.8118 25.4893 82.2005 26.1287 81.6685 26.642C80.5485 27.678 79.8112 28.196 79.4565 28.196C79.3165 28.196 79.2465 28.1073 79.2465 27.93C79.2465 27.594 79.4378 27.0853 79.8205 26.404C80.2032 25.7133 80.5812 25.074 80.9545 24.486C81.3372 23.8887 81.5285 23.5387 81.5285 23.436C81.5285 23.38 81.5005 23.352 81.4445 23.352C81.2205 23.352 80.7958 23.6973 80.1705 24.388C79.5452 25.0787 79.0178 25.6993 78.5885 26.25C78.1125 26.8473 77.6972 27.3233 77.3425 27.678C76.9972 28.0327 76.7685 28.2333 76.6565 28.28L76.4745 28.364C76.3905 28.364 76.3485 28.3173 76.3485 28.224C76.3485 28.0747 76.4325 27.8087 76.6005 27.426C76.7685 27.0433 76.9365 26.698 77.1045 26.39L77.3565 25.928L79.5405 22.008C81.2578 18.9747 82.6112 16.8187 83.6005 15.54C83.8805 15.1667 84.0765 14.98 84.1885 14.98C84.2445 14.98 84.2725 15.0173 84.2725 15.092C84.2725 15.288 84.1232 15.6893 83.8245 16.296C82.3592 18.9373 81.3418 20.7667 80.7725 21.784C80.4272 22.4 80.1145 22.9507 79.8345 23.436C79.5545 23.912 79.3538 24.248 79.2325 24.444C79.1205 24.64 79.0225 24.8127 78.9385 24.962C78.8545 25.102 78.7892 25.2233 78.7425 25.326C78.7332 25.354 78.7285 25.382 78.7285 25.41C78.7285 25.4567 78.7378 25.48 78.7565 25.48C78.7752 25.48 78.8125 25.452 78.8685 25.396C80.9592 23.072 82.3312 21.91 82.9845 21.91C83.1152 21.91 83.1805 21.9753 83.1805 22.106C83.1805 22.1433 83.1618 22.2273 83.1245 22.358C83.0872 22.4793 82.9798 22.7313 82.8025 23.114C82.6252 23.4967 82.3918 23.9213 82.1025 24.388C81.9252 24.6493 81.7012 25.0227 81.4305 25.508C81.1598 25.9933 81.0245 26.3107 81.0245 26.46C81.0245 26.544 81.0665 26.586 81.1505 26.586C81.1785 26.586 81.2158 26.5767 81.2625 26.558C81.3185 26.53 81.3792 26.488 81.4445 26.432C81.5098 26.376 81.5658 26.3247 81.6125 26.278C81.6685 26.2313 81.7432 26.166 81.8365 26.082C81.9392 25.9887 82.0138 25.9233 82.0605 25.886ZM86.3582 27.118C85.5835 27.8273 85.0515 28.182 84.7622 28.182C84.6315 28.182 84.5662 28.1073 84.5662 27.958C84.5662 27.7713 84.6455 27.4867 84.8042 27.104C84.9722 26.7213 85.1402 26.3853 85.3082 26.096L85.5602 25.662C85.5975 25.5967 85.6162 25.5547 85.6162 25.536C85.6162 25.5173 85.6068 25.508 85.5882 25.508C85.5508 25.508 85.4808 25.5593 85.3782 25.662C85.0982 25.97 84.7762 26.3013 84.4122 26.656C84.0575 27.0013 83.7682 27.272 83.5442 27.468L83.2222 27.748C82.8582 28.028 82.5782 28.168 82.3822 28.168C82.1768 28.168 82.0742 28.0093 82.0742 27.692C82.0742 27.5333 82.1208 27.2907 82.2142 26.964C82.2982 26.6373 82.3635 26.418 82.4102 26.306C82.6248 25.7833 82.8908 25.2747 83.2082 24.78C83.5348 24.2853 83.9175 23.814 84.3562 23.366C84.7948 22.9087 85.3035 22.54 85.8822 22.26C86.4702 21.98 87.0768 21.84 87.7022 21.84C88.2248 21.84 88.4862 21.9193 88.4862 22.078C88.4862 22.1713 88.3695 22.218 88.1362 22.218C87.2775 22.218 86.4702 22.5867 85.7142 23.324C84.9675 24.052 84.3608 24.892 83.8942 25.844C83.7635 26.1053 83.6982 26.3247 83.6982 26.502C83.6982 26.6047 83.7308 26.656 83.7962 26.656C83.9082 26.656 84.0528 26.5767 84.2302 26.418C84.3422 26.3153 84.4915 26.18 84.6782 26.012C84.8742 25.844 85.1868 25.522 85.6162 25.046C86.0455 24.57 86.3862 24.1267 86.6382 23.716C86.6755 23.6413 86.7315 23.5527 86.8062 23.45C86.8902 23.3473 87.0442 23.212 87.2682 23.044C87.4922 22.8667 87.7162 22.778 87.9402 22.778C88.0615 22.778 88.1222 22.8107 88.1222 22.876C88.1222 22.8947 88.1082 22.9273 88.0802 22.974C88.0428 23.0487 87.9355 23.2353 87.7582 23.534C87.5902 23.8327 87.4315 24.1173 87.2822 24.388C87.1328 24.6493 86.9742 24.9387 86.8062 25.256C86.6382 25.564 86.5028 25.83 86.4002 26.054C86.3068 26.278 86.2602 26.4273 86.2602 26.502C86.2602 26.558 86.2835 26.586 86.3302 26.586C86.4702 26.586 86.8108 26.3153 87.3522 25.774C87.7628 25.3447 88.2435 24.8173 88.7942 24.192C88.8222 24.164 88.8455 24.15 88.8642 24.15C88.8828 24.15 88.8922 24.1687 88.8922 24.206C88.8922 24.3833 88.8222 24.556 88.6822 24.724C87.7675 25.7413 86.9928 26.5393 86.3582 27.118ZM89.9018 25.886C90.2938 25.494 90.8118 24.9293 91.4558 24.192C91.4838 24.164 91.5072 24.15 91.5258 24.15C91.5445 24.15 91.5538 24.1687 91.5538 24.206C91.5538 24.3833 91.4838 24.556 91.3438 24.724C90.6532 25.4893 90.0418 26.1287 89.5098 26.642C88.3898 27.7247 87.6478 28.266 87.2838 28.266C87.1532 28.266 87.0878 28.182 87.0878 28.014C87.0878 27.818 87.1625 27.524 87.3118 27.132C87.4612 26.74 87.6105 26.3947 87.7598 26.096L87.9838 25.662C88.1985 25.2793 88.5532 24.626 89.0478 23.702C89.5425 22.778 90.0185 21.9053 90.4758 21.084C90.9425 20.2627 91.3812 19.5207 91.7918 18.858H90.6858C90.5925 18.858 90.5458 18.8347 90.5458 18.788C90.5458 18.7413 90.5832 18.6947 90.6578 18.648C90.7325 18.6013 90.8118 18.578 90.8958 18.578C91.1012 18.578 91.4605 18.5733 91.9738 18.564C92.4312 17.8453 92.8232 17.276 93.1498 16.856C93.4392 16.492 93.6398 16.31 93.7518 16.31C93.8172 16.31 93.8498 16.352 93.8498 16.436C93.8498 16.632 93.6725 17.052 93.3178 17.696L92.8418 18.564H94.2838C94.3678 18.564 94.4098 18.5873 94.4098 18.634C94.4098 18.7833 94.2745 18.858 94.0038 18.858H92.6878C90.5318 22.946 89.3978 25.088 89.2858 25.284C88.8938 26.0027 88.6978 26.4693 88.6978 26.684C88.6978 26.7493 88.7212 26.782 88.7678 26.782C88.8985 26.782 89.2765 26.4833 89.9018 25.886Z" fill="#1E1E1E"/>
<path d="M18.912 29C18.4 29 17.904 28.856 17.424 28.568C16.96 28.28 16.584 27.824 16.296 27.2C16.008 26.576 15.864 25.776 15.864 24.8C15.864 24 15.96 23.104 16.152 22.112C16.344 21.104 16.592 20.096 16.896 19.088C17.216 18.08 17.56 17.168 17.928 16.352C16.824 17.088 15.856 18.104 15.024 19.4C14.192 20.696 13.472 22.2 12.864 23.912C12.992 24.424 13.096 24.904 13.176 25.352C13.256 25.8 13.296 26.208 13.296 26.576C13.296 27.28 13.128 27.832 12.792 28.232C12.456 28.632 11.872 28.832 11.04 28.832C10.304 28.832 9.76 28.672 9.408 28.352C9.072 28.016 8.904 27.552 8.904 26.96C8.904 26.576 8.968 26.136 9.096 25.64C9.24 25.144 9.44 24.608 9.696 24.032C9.408 23.184 9.056 22.232 8.64 21.176C8.224 20.104 7.64 18.936 6.888 17.672C6.664 18.616 6.432 19.56 6.192 20.504C5.968 21.432 5.776 22.296 5.616 23.096C5.472 23.88 5.4 24.544 5.4 25.088C5.4 25.968 5.64 26.408 6.12 26.408L6.168 26.456C6.168 26.984 6.032 27.44 5.76 27.824C5.504 28.192 5.168 28.48 4.752 28.688C4.352 28.88 3.928 28.976 3.48 28.976C3.048 28.976 2.624 28.872 2.208 28.664C1.808 28.456 1.48 28.136 1.224 27.704C0.968 27.256 0.84 26.688 0.84 26C0.84 25.344 0.952 24.632 1.176 23.864C1.416 23.08 1.712 22.288 2.064 21.488C2.416 20.672 2.776 19.88 3.144 19.112C3.512 18.328 3.84 17.6 4.128 16.928C4.432 16.24 4.632 15.64 4.728 15.128C4.408 14.904 4.064 14.792 3.696 14.792C3.392 14.792 3.08 14.896 2.76 15.104C2.456 15.296 2.168 15.624 1.896 16.088L1.728 16.016C1.744 15.2 1.92 14.456 2.256 13.784C2.592 13.096 3.032 12.552 3.576 12.152C4.136 11.736 4.744 11.528 5.4 11.528C6.152 11.528 6.928 11.856 7.728 12.512C8.528 13.168 9.264 14.248 9.936 15.752C10.624 17.256 11.176 19.288 11.592 21.848C12.2 19.88 12.856 18.232 13.56 16.904C14.264 15.576 14.984 14.52 15.72 13.736C16.472 12.952 17.208 12.392 17.928 12.056C18.664 11.704 19.36 11.528 20.016 11.528C20.832 11.528 21.56 11.728 22.2 12.128C22.856 12.528 23.368 13.032 23.736 13.64C24.12 14.248 24.312 14.856 24.312 15.464C23.912 15.352 23.512 15.272 23.112 15.224C22.728 15.176 22.352 15.152 21.984 15.152C21.616 15.152 21.264 15.176 20.928 15.224C20.784 15.96 20.632 16.784 20.472 17.696C20.312 18.592 20.168 19.496 20.04 20.408C19.928 21.32 19.872 22.16 19.872 22.928C19.872 23.712 19.952 24.352 20.112 24.848C20.272 25.344 20.552 25.592 20.952 25.592C21.208 25.592 21.464 25.48 21.72 25.256C21.992 25.032 22.192 24.688 22.32 24.224L22.488 24.296C22.488 25.352 22.312 26.232 21.96 26.936C21.608 27.624 21.152 28.144 20.592 28.496C20.048 28.832 19.488 29 18.912 29ZM27.3143 29.096C26.7383 29.096 26.2183 28.856 25.7543 28.376C25.2903 27.896 25.0583 27.104 25.0583 26C25.0583 25.104 25.1623 24.224 25.3703 23.36C25.5783 22.496 25.8103 21.624 26.0663 20.744C26.3383 19.848 26.5623 18.928 26.7383 17.984C26.9303 17.024 26.9943 16.016 26.9303 14.96C26.4983 15.024 26.0743 15.136 25.6583 15.296C25.2423 15.456 24.8343 15.688 24.4343 15.992C24.4343 14.984 24.5223 14.168 24.6982 13.544C24.8743 12.904 25.2183 12.44 25.7303 12.152C26.2423 11.864 27.0023 11.72 28.0103 11.72C28.5543 11.72 29.1623 11.76 29.8343 11.84C30.5063 11.92 31.1943 12 31.8983 12.08C32.6183 12.16 33.2983 12.2 33.9383 12.2C34.5623 12.2 35.1223 12.144 35.6183 12.032C36.1143 11.904 36.4983 11.68 36.7703 11.36C37.0903 11.568 37.3303 11.856 37.4903 12.224C37.6663 12.576 37.7543 12.96 37.7543 13.376C37.7543 13.808 37.6503 14.232 37.4423 14.648C37.2503 15.048 36.9463 15.384 36.5303 15.656C36.1143 15.912 35.5703 16.04 34.8983 16.04C34.1943 16.04 33.4263 15.928 32.5943 15.704C31.7623 15.48 30.9063 15.288 30.0263 15.128C30.1063 15.48 30.1623 15.832 30.1943 16.184C30.2423 16.536 30.2663 16.896 30.2663 17.264C30.2663 17.664 30.2503 18.064 30.2183 18.464C30.1863 18.848 30.1383 19.248 30.0742 19.664C30.4103 19.488 30.8183 19.328 31.2983 19.184C31.7783 19.04 32.2663 18.92 32.7623 18.824C33.2743 18.728 33.7303 18.68 34.1303 18.68C34.3863 18.68 34.6103 18.704 34.8023 18.752C34.9623 19.088 35.0423 19.496 35.0423 19.976C35.0423 20.744 34.8503 21.528 34.4663 22.328L34.2983 22.4C33.7063 22.08 33.0183 21.832 32.2343 21.656C31.4663 21.48 30.6583 21.36 29.8103 21.296C29.6503 22.208 29.4983 23.136 29.3543 24.08C29.2103 25.024 29.1383 25.992 29.1383 26.984C29.1383 27.192 29.1383 27.408 29.1383 27.632C29.1543 27.856 29.1703 28.08 29.1863 28.304C28.6583 28.832 28.0343 29.096 27.3143 29.096Z" fill="#1E1E1E"/>
</svg>
