<svg width="37" height="18" viewBox="0 0 37 18" fill="none" xmlns="http://www.w3.org/2000/svg">
<path d="M18.072 17.64C17.56 17.64 17.064 17.496 16.584 17.208C16.12 16.92 15.744 16.464 15.456 15.84C15.168 15.216 15.024 14.416 15.024 13.44C15.024 12.64 15.12 11.744 15.312 10.752C15.504 9.744 15.752 8.736 16.056 7.728C16.376 6.72 16.72 5.808 17.088 4.992C15.984 5.728 15.016 6.744 14.184 8.04C13.352 9.336 12.632 10.84 12.024 12.552C12.152 13.064 12.256 13.544 12.336 13.992C12.416 14.44 12.456 14.848 12.456 15.216C12.456 15.92 12.288 16.472 11.952 16.872C11.616 17.272 11.032 17.472 10.2 17.472C9.464 17.472 8.92 17.312 8.568 16.992C8.232 16.656 8.064 16.192 8.064 15.6C8.064 15.216 8.128 14.776 8.256 14.28C8.4 13.784 8.6 13.248 8.856 12.672C8.568 11.824 8.216 10.872 7.8 9.816C7.384 8.744 6.8 7.576 6.048 6.312C5.824 7.256 5.592 8.2 5.352 9.144C5.128 10.072 4.936 10.936 4.776 11.736C4.632 12.52 4.56 13.184 4.56 13.728C4.56 14.608 4.8 15.048 5.28 15.048L5.328 15.096C5.328 15.624 5.192 16.08 4.92 16.464C4.664 16.832 4.328 17.12 3.912 17.328C3.512 17.52 3.088 17.616 2.64 17.616C2.208 17.616 1.784 17.512 1.368 17.304C0.968004 17.096 0.640004 16.776 0.384004 16.344C0.128004 15.896 3.66569e-06 15.328 3.66569e-06 14.64C3.66569e-06 13.984 0.112004 13.272 0.336004 12.504C0.576004 11.72 0.872004 10.928 1.224 10.128C1.576 9.312 1.936 8.52 2.304 7.752C2.672 6.968 3 6.24 3.288 5.568C3.592 4.88 3.792 4.28 3.888 3.768C3.568 3.544 3.224 3.432 2.856 3.432C2.552 3.432 2.24 3.536 1.92 3.744C1.616 3.936 1.328 4.264 1.056 4.728L0.888004 4.656C0.904004 3.84 1.08 3.096 1.416 2.424C1.752 1.736 2.192 1.192 2.736 0.791999C3.296 0.375998 3.904 0.167998 4.56 0.167998C5.312 0.167998 6.088 0.495998 6.888 1.152C7.688 1.808 8.424 2.888 9.096 4.392C9.784 5.896 10.336 7.928 10.752 10.488C11.36 8.52 12.016 6.872 12.72 5.544C13.424 4.216 14.144 3.16 14.88 2.376C15.632 1.592 16.368 1.032 17.088 0.695999C17.824 0.343998 18.52 0.167998 19.176 0.167998C19.992 0.167998 20.72 0.367999 21.36 0.767999C22.016 1.168 22.528 1.672 22.896 2.28C23.28 2.888 23.472 3.496 23.472 4.104C23.072 3.992 22.672 3.912 22.272 3.864C21.888 3.816 21.512 3.792 21.144 3.792C20.776 3.792 20.424 3.816 20.088 3.864C19.944 4.6 19.792 5.424 19.632 6.336C19.472 7.232 19.328 8.136 19.2 9.048C19.088 9.96 19.032 10.8 19.032 11.568C19.032 12.352 19.112 12.992 19.272 13.488C19.432 13.984 19.712 14.232 20.112 14.232C20.368 14.232 20.624 14.12 20.88 13.896C21.152 13.672 21.352 13.328 21.48 12.864L21.648 12.936C21.648 13.992 21.472 14.872 21.12 15.576C20.768 16.264 20.312 16.784 19.752 17.136C19.208 17.472 18.648 17.64 18.072 17.64ZM26.4743 17.736C25.8983 17.736 25.3783 17.496 24.9143 17.016C24.4503 16.536 24.2183 15.744 24.2183 14.64C24.2183 13.744 24.3223 12.864 24.5303 12C24.7383 11.136 24.9703 10.264 25.2263 9.384C25.4983 8.488 25.7223 7.568 25.8983 6.624C26.0903 5.664 26.1543 4.656 26.0903 3.6C25.6583 3.664 25.2343 3.776 24.8183 3.936C24.4023 4.096 23.9943 4.328 23.5943 4.632C23.5943 3.624 23.6823 2.808 23.8583 2.184C24.0343 1.544 24.3783 1.08 24.8903 0.791999C25.4023 0.503999 26.1623 0.359999 27.1703 0.359999C27.7143 0.359999 28.3223 0.399999 28.9943 0.479999C29.6663 0.559999 30.3543 0.639998 31.0583 0.719998C31.7783 0.799998 32.4583 0.839998 33.0983 0.839998C33.7223 0.839998 34.2823 0.783998 34.7783 0.671999C35.2743 0.543999 35.6583 0.319999 35.9303 -9.53674e-07C36.2503 0.207998 36.4903 0.495998 36.6503 0.863998C36.8263 1.216 36.9143 1.6 36.9143 2.016C36.9143 2.448 36.8103 2.872 36.6023 3.288C36.4103 3.688 36.1063 4.024 35.6903 4.296C35.2743 4.552 34.7303 4.68 34.0583 4.68C33.3543 4.68 32.5863 4.568 31.7543 4.344C30.9223 4.12 30.0663 3.928 29.1863 3.768C29.2663 4.12 29.3223 4.472 29.3543 4.824C29.4023 5.176 29.4263 5.536 29.4263 5.904C29.4263 6.304 29.4103 6.704 29.3783 7.104C29.3463 7.488 29.2983 7.888 29.2343 8.304C29.5703 8.128 29.9783 7.968 30.4583 7.824C30.9383 7.68 31.4263 7.56 31.9223 7.464C32.4343 7.368 32.8903 7.32 33.2903 7.32C33.5463 7.32 33.7703 7.344 33.9623 7.392C34.1223 7.728 34.2023 8.136 34.2023 8.616C34.2023 9.384 34.0103 10.168 33.6263 10.968L33.4583 11.04C32.8663 10.72 32.1783 10.472 31.3943 10.296C30.6263 10.12 29.8183 10 28.9703 9.936C28.8103 10.848 28.6583 11.776 28.5143 12.72C28.3703 13.664 28.2983 14.632 28.2983 15.624C28.2983 15.832 28.2983 16.048 28.2983 16.272C28.3143 16.496 28.3303 16.72 28.3463 16.944C27.8183 17.472 27.1943 17.736 26.4743 17.736Z" fill="black"/>
</svg>
